<?xml version="1.0" encoding="UTF-8"?>
<svg xmlns="http://www.w3.org/2000/svg" xmlns:xlink="http://www.w3.org/1999/xlink" width="504pt" height="167pt" viewBox="0 0 504 167" version="1.1">
<g id="surface39">
<rect x="0" y="0" width="504" height="167" style="fill:rgb(100%,100%,100%);fill-opacity:1;stroke:none;"/>
<path style="fill:none;stroke-width:0.75;stroke-linecap:round;stroke-linejoin:round;stroke:rgb(60%,60%,60%);stroke-opacity:1;stroke-miterlimit:10;" d="M 129.886719 72.984375 L 128.535156 67.367188 L 126.324219 62.023438 L 123.304688 57.097656 L 119.550781 52.703125 L 115.15625 48.949219 L 110.226563 45.929688 L 104.886719 43.714844 L 99.265625 42.367188 L 93.503906 41.914063 L 87.742188 42.367188 L 82.121094 43.714844 L 76.78125 45.929688 L 71.851563 48.949219 L 67.457031 52.703125 L 63.703125 57.097656 L 60.683594 62.023438 L 58.472656 67.367188 L 57.121094 72.984375 L 56.667969 78.746094 L 57.121094 84.511719 L 58.472656 90.128906 L 60.683594 95.46875 L 63.703125 100.398438 L 67.457031 104.792969 L 71.851563 108.546875 L 76.78125 111.566406 L 82.121094 113.78125 L 87.742188 115.128906 L 93.503906 115.582031 L 99.265625 115.128906 L 104.886719 113.78125 L 110.226563 111.566406 L 115.15625 108.546875 L 119.550781 104.792969 L 123.304688 100.398438 L 126.324219 95.46875 L 128.535156 90.128906 L 129.886719 84.511719 L 130.339844 78.746094 L 129.886719 72.984375 "/>
<path style=" stroke:none;fill-rule:nonzero;fill:rgb(40%,65.098039%,11.764706%);fill-opacity:1;" d="M 93.503906 41.914063 L 78.769531 41.914063 L 78.769531 115.582031 L 93.503906 115.582031 L 93.503906 78.746094 L 118.058594 54.191406 L 130.339844 54.191406 L 130.339844 41.914063 L 111.921875 41.914063 L 93.503906 60.332031 Z M 93.503906 41.914063 "/>
<path style="fill:none;stroke-width:0.75;stroke-linecap:round;stroke-linejoin:round;stroke:rgb(60%,60%,60%);stroke-opacity:1;stroke-miterlimit:10;" d="M 297.886719 72.984375 L 296.535156 67.367188 L 294.324219 62.023438 L 291.304688 57.097656 L 287.550781 52.703125 L 283.15625 48.949219 L 278.226563 45.929688 L 272.886719 43.714844 L 267.265625 42.367188 L 261.503906 41.914063 L 255.742188 42.367188 L 250.121094 43.714844 L 244.78125 45.929688 L 239.851563 48.949219 L 235.457031 52.703125 L 231.703125 57.097656 L 228.683594 62.023438 L 226.472656 67.367188 L 225.121094 72.984375 L 224.667969 78.746094 L 225.121094 84.511719 L 226.472656 90.128906 L 228.683594 95.46875 L 231.703125 100.398438 L 235.457031 104.792969 L 239.851563 108.546875 L 244.78125 111.566406 L 250.121094 113.78125 L 255.742188 115.128906 L 261.503906 115.582031 L 267.265625 115.128906 L 272.886719 113.78125 L 278.226563 111.566406 L 283.15625 108.546875 L 287.550781 104.792969 L 291.304688 100.398438 L 294.324219 95.46875 L 296.535156 90.128906 L 297.886719 84.511719 L 298.339844 78.746094 L 297.886719 72.984375 "/>
<path style=" stroke:none;fill-rule:nonzero;fill:rgb(10.588235%,61.960784%,46.666667%);fill-opacity:1;" d="M 295.535156 64.652344 L 275.601563 44.71875 L 247.40625 44.71875 L 227.472656 64.652344 L 227.472656 92.84375 L 247.40625 112.777344 L 275.601563 112.777344 L 295.535156 92.84375 L 282.773438 87.558594 L 270.3125 100.015625 L 252.695313 100.015625 L 240.234375 87.558594 L 240.234375 69.9375 L 252.695313 57.480469 L 270.3125 57.480469 L 282.773438 69.9375 Z M 295.535156 64.652344 "/>
<path style="fill:none;stroke-width:0.75;stroke-linecap:round;stroke-linejoin:round;stroke:rgb(60%,60%,60%);stroke-opacity:1;stroke-miterlimit:10;" d="M 465.886719 72.984375 L 464.535156 67.367188 L 462.324219 62.023438 L 459.304688 57.097656 L 455.550781 52.703125 L 451.15625 48.949219 L 446.226563 45.929688 L 440.886719 43.714844 L 435.265625 42.367188 L 429.503906 41.914063 L 423.742188 42.367188 L 418.121094 43.714844 L 412.78125 45.929688 L 407.851563 48.949219 L 403.457031 52.703125 L 399.703125 57.097656 L 396.683594 62.023438 L 394.472656 67.367188 L 393.121094 72.984375 L 392.667969 78.746094 L 393.121094 84.511719 L 394.472656 90.128906 L 396.683594 95.46875 L 399.703125 100.398438 L 403.457031 104.792969 L 407.851563 108.546875 L 412.78125 111.566406 L 418.121094 113.78125 L 423.742188 115.128906 L 429.503906 115.582031 L 435.265625 115.128906 L 440.886719 113.78125 L 446.226563 111.566406 L 451.15625 108.546875 L 455.550781 104.792969 L 459.304688 100.398438 L 462.324219 95.46875 L 464.535156 90.128906 L 465.886719 84.511719 L 466.339844 78.746094 L 465.886719 72.984375 "/>
<path style=" stroke:none;fill-rule:nonzero;fill:rgb(45.882353%,43.921569%,70.196078%);fill-opacity:1;" d="M 461.402344 46.847656 L 397.605469 46.847656 L 397.605469 59.609375 L 442.265625 59.609375 L 397.605469 97.886719 L 397.605469 110.648438 L 461.402344 110.648438 L 461.402344 97.886719 L 416.742188 97.886719 L 461.402344 59.609375 Z M 461.402344 46.847656 "/>
</g>
</svg>
